<svg xmlns="http://www.w3.org/2000/svg" width="1440" height="1080" viewBox="0 0 1440 1080" role="img" aria-labelledby="title desc">
  <title id="title">Summer Duo warm summer cover</title>
  <desc id="desc">A paper-toned editorial cover with a summer arch, flowers and a small shared list.</desc>
  <rect width="1440" height="1080" fill="#eadfd1"/>
  <rect x="56" y="56" width="1328" height="968" rx="28" fill="#f7f2e9" stroke="#302b27" stroke-width="3"/>
  <path d="M172 836V430c0-178 148-322 330-322s330 144 330 322v406Z" fill="#b7625b"/>
  <path d="M238 836V442c0-142 116-256 264-256s264 114 264 256v394Z" fill="#e8c9c0"/>
  <circle cx="1017" cy="319" r="151" fill="#e9d79e"/>
  <circle cx="1091" cy="382" r="151" fill="#aab8a5"/>
  <path d="M1039 861c42-152 25-301-55-431M1040 863c-22-110-96-197-199-250M1039 698c47-50 88-72 143-91M960 612c-48-56-90-75-151-92" fill="none" stroke="#302b27" stroke-width="7" stroke-linecap="round"/>
  <path d="M886 529c17-30 42-43 65-41-2 26-16 49-42 59M1117 516c-24-24-26-52-14-73 25 12 39 35 36 63M939 659c-21-28-20-55-6-74 23 14 34 38 27 62" fill="#b7625b" stroke="#302b27" stroke-width="5"/>
  <path d="M1121 272c28 31 48 68 58 111M1120 273c-37 7-70 22-100 45M1137 331c33-7 63-5 91 4M1031 317c-24 24-42 53-52 86" fill="none" stroke="#302b27" stroke-width="6" stroke-linecap="round"/>
  <g fill="#302b27" font-family="Georgia, 'Songti SC', serif">
    <text x="886" y="628" font-size="91" letter-spacing="-4">Summer</text>
    <text x="887" y="710" font-size="91" letter-spacing="-4">Duo</text>
  </g>
  <g fill="#302b27" font-family="Arial, 'Microsoft YaHei', sans-serif">
    <text x="887" y="772" font-size="24" letter-spacing="7">A LITTLE LIFE, TOGETHER</text>
    <text x="887" y="824" font-size="22">把下一次见面留在清单里。</text>
  </g>
  <path d="M151 924h1138" stroke="#302b27" stroke-width="2"/>
  <g fill="#b7625b" font-family="Arial, sans-serif" font-size="18" font-weight="700" letter-spacing="5">
    <text x="152" y="970">PRIVATE SUMMER / 2026</text>
    <text x="1121" y="970">01 — 51</text>
  </g>
</svg>
