<svg xmlns="http://www.w3.org/2000/svg" width="1440" height="1080" viewBox="0 0 1440 1080" role="img" aria-labelledby="title desc">
  <title id="title">Summer Duo abstract product cover</title>
  <desc id="desc">A dark high-tech abstract bento interface for a two-person summer checklist.</desc>
  <defs>
    <radialGradient id="g1" cx="25%" cy="20%" r="65%"><stop offset="0" stop-color="#ff7ab6" stop-opacity=".9"/><stop offset=".45" stop-color="#9b87ff" stop-opacity=".34"/><stop offset="1" stop-color="#070a12" stop-opacity="0"/></radialGradient>
    <radialGradient id="g2" cx="82%" cy="18%" r="62%"><stop offset="0" stop-color="#70e6ff" stop-opacity=".8"/><stop offset=".55" stop-color="#8fffd2" stop-opacity=".22"/><stop offset="1" stop-color="#070a12" stop-opacity="0"/></radialGradient>
    <linearGradient id="card" x1="0" y1="0" x2="1" y2="1"><stop offset="0" stop-color="#ffffff" stop-opacity=".16"/><stop offset="1" stop-color="#ffffff" stop-opacity=".045"/></linearGradient>
    <filter id="shadow" x="-20%" y="-20%" width="140%" height="140%"><feDropShadow dx="0" dy="34" stdDeviation="42" flood-color="#000000" flood-opacity=".42"/></filter>
  </defs>
  <rect width="1440" height="1080" rx="68" fill="#070a12"/><rect width="1440" height="1080" rx="68" fill="url(#g1)"/><rect width="1440" height="1080" rx="68" fill="url(#g2)"/>
  <g opacity=".23"><path d="M0 184H1440M0 336H1440M0 488H1440M0 640H1440M0 792H1440M0 944H1440" stroke="#fff"/><path d="M160 0V1080M320 0V1080M480 0V1080M640 0V1080M800 0V1080M960 0V1080M1120 0V1080M1280 0V1080" stroke="#fff"/></g>
  <g filter="url(#shadow)">
    <rect x="110" y="112" width="1220" height="856" rx="48" fill="#0b1020" fill-opacity=".74" stroke="#ffffff" stroke-opacity=".18"/>
    <rect x="150" y="152" width="1140" height="78" rx="26" fill="url(#card)" stroke="#ffffff" stroke-opacity=".14"/>
    <circle cx="193" cy="191" r="10" fill="#ff7ab6"/><circle cx="226" cy="191" r="10" fill="#ffd68a"/><circle cx="259" cy="191" r="10" fill="#8fffd2"/>
    <text x="1066" y="198" fill="#a9b1c7" font-family="Inter, Arial, sans-serif" font-size="24">summer-ef980926</text>
    <text x="170" y="322" fill="#f6f8ff" font-family="Inter, Arial, sans-serif" font-size="86" font-weight="700" letter-spacing="-5">Summer Duo</text>
    <text x="174" y="374" fill="#a9b1c7" font-family="Inter, Arial, sans-serif" font-size="28">51 项夏日清单 · 12 项已点亮 · 完成率 24%</text>
    <rect x="170" y="440" width="500" height="320" rx="34" fill="url(#card)" stroke="#ffffff" stroke-opacity=".16"/>
    <text x="212" y="504" fill="#70e6ff" font-family="Inter, Arial, sans-serif" font-size="22" font-weight="700">PROGRESS</text>
    <text x="212" y="590" fill="#f6f8ff" font-family="Inter, Arial, sans-serif" font-size="92" font-weight="700" letter-spacing="-4">12 / 51</text>
    <rect x="214" y="648" width="384" height="20" rx="10" fill="#ffffff" fill-opacity=".12"/><rect x="214" y="648" width="92" height="20" rx="10" fill="#70e6ff"/>
    <rect x="710" y="440" width="560" height="142" rx="34" fill="url(#card)" stroke="#ffffff" stroke-opacity=".16"/>
    <text x="754" y="496" fill="#f6f8ff" font-family="Inter, Arial, sans-serif" font-size="34" font-weight="700">室内攀岩</text><text x="754" y="540" fill="#a9b1c7" font-family="Inter, Arial, sans-serif" font-size="24">运动 · already lit</text>
    <circle cx="1212" cy="512" r="24" fill="#8fffd2"/><path d="M1200 511l9 10 18-24" fill="none" stroke="#071018" stroke-width="7" stroke-linecap="round" stroke-linejoin="round"/>
    <rect x="710" y="618" width="560" height="142" rx="34" fill="url(#card)" stroke="#ffffff" stroke-opacity=".16"/>
    <text x="754" y="674" fill="#f6f8ff" font-family="Inter, Arial, sans-serif" font-size="34" font-weight="700">逛科技馆</text><text x="754" y="718" fill="#a9b1c7" font-family="Inter, Arial, sans-serif" font-size="24">逛逛 · already lit</text>
    <circle cx="1212" cy="690" r="24" fill="#9b87ff"/><path d="M1200 689l9 10 18-24" fill="none" stroke="#071018" stroke-width="7" stroke-linecap="round" stroke-linejoin="round"/>
    <rect x="170" y="800" width="1100" height="98" rx="30" fill="#ffffff" fill-opacity=".07" stroke="#ffffff" stroke-opacity=".14"/>
    <text x="214" y="860" fill="#d8dded" font-family="Inter, Arial, sans-serif" font-size="28">Next signal: randomly choose one plan, then make it real.</text>
  </g>
</svg>
